<svg xmlns="http://www.w3.org/2000/svg" width="49" height="77" viewBox="0 0 49 77" fill="none">
  <path d="M30.1162 32.877C31.7197 32.877 33.2686 33.4966 34.4189 34.6152C35.5711 35.7359 36.2295 37.2675 36.2295 38.877V40.877H44.5117C45.6162 40.8771 46.5117 41.7725 46.5117 42.877C46.5117 43.9815 45.6162 44.8768 44.5117 44.877H42.3984V70.877C42.3984 72.4865 41.7402 74.018 40.5879 75.1387C39.4375 76.2573 37.8886 76.877 36.2852 76.877H15.7207C14.1174 76.8768 12.5682 76.2573 11.418 75.1387C10.2661 74.0181 9.6084 72.4862 9.6084 70.877V44.877H7.49512C6.39076 44.8767 5.49512 43.9814 5.49512 42.877C5.49512 41.7725 6.39076 40.8772 7.49512 40.877H15.7773V38.877C15.7773 37.2676 16.4358 35.7359 17.5879 34.6152C18.7382 33.4965 20.2872 32.8771 21.8906 32.877H30.1162ZM13.6084 70.877C13.6084 71.389 13.8169 71.8919 14.207 72.2715C14.5991 72.6528 15.1429 72.8768 15.7207 72.877H36.2852C36.8631 72.877 37.4076 72.6528 37.7998 72.2715C38.19 71.8919 38.3984 71.389 38.3984 70.877V44.877H13.6084V70.877ZM21.8906 50.877C22.9951 50.8771 23.8906 51.7725 23.8906 52.877V64.877C23.8906 65.9814 22.9951 66.8768 21.8906 66.877C20.7863 66.8767 19.8906 65.9814 19.8906 64.877V52.877C19.8906 51.7725 20.7863 50.8772 21.8906 50.877ZM30.1162 50.877C31.2208 50.877 32.1162 51.7724 32.1162 52.877V64.877C32.1162 65.9815 31.2208 66.877 30.1162 66.877C29.0119 66.8767 28.1162 65.9814 28.1162 64.877V52.877C28.1162 51.7725 29.0119 50.8772 30.1162 50.877ZM21.8906 36.877C21.3128 36.8771 20.7691 37.1011 20.377 37.4824C19.9867 37.862 19.7773 38.3649 19.7773 38.877V40.877H32.2295V38.877C32.2295 38.3648 32.0202 37.8621 31.6299 37.4824C31.2377 37.1011 30.6941 36.877 30.1162 36.877H21.8906Z" fill="white" fill-opacity="0.7"/>
</svg>
