<svg preserveAspectRatio="none" width="100%" height="100%" overflow="visible" style="display: block;" viewBox="0 0 41.0166 44" fill="none" xmlns="http://www.w3.org/2000/svg">
<path id="Union" d="M24.6211 0C26.2245 0 27.7735 0.61961 28.9238 1.73828C30.076 2.85891 30.7344 4.39056 30.7344 6V8H39.0166C40.1211 8.00011 41.0166 8.8955 41.0166 10C41.0166 11.1045 40.1211 11.9999 39.0166 12H36.9033V38C36.9033 39.6095 36.2451 41.1411 35.0928 42.2617C33.9424 43.3804 32.3935 44 30.79 44H10.2256C8.62228 43.9998 7.07308 43.3804 5.92285 42.2617C4.77095 41.1411 4.11328 39.6093 4.11328 38V12H2C0.895639 11.9998 0 11.1044 0 10C0 8.89558 0.895639 8.00025 2 8H10.2822V6C10.2822 4.39062 10.9407 2.8589 12.0928 1.73828C13.2431 0.619573 14.7921 0.000116775 16.3955 0H24.6211ZM8.11328 38C8.11328 38.512 8.32177 39.0149 8.71191 39.3945C9.104 39.7758 9.64779 39.9998 10.2256 40H30.79C31.368 40 31.9125 39.7759 32.3047 39.3945C32.6949 39.0149 32.9033 38.5121 32.9033 38V12H8.11328V38ZM16.3955 18C17.5 18.0001 18.3955 18.8955 18.3955 20V32C18.3955 33.1045 17.5 33.9999 16.3955 34C15.2911 33.9998 14.3955 33.1044 14.3955 32V20C14.3955 18.8956 15.2911 18.0002 16.3955 18ZM24.6211 18C25.7257 18 26.6211 18.8954 26.6211 20V32C26.6211 33.1046 25.7257 34 24.6211 34C23.5167 33.9997 22.6211 33.1044 22.6211 32V20C22.6211 18.8956 23.5167 18.0003 24.6211 18ZM16.3955 4C15.8177 4.00012 15.274 4.22419 14.8818 4.60547C14.4916 4.98508 14.2822 5.48792 14.2822 6V8H26.7344V6C26.7344 5.48782 26.5251 4.98511 26.1348 4.60547C25.7425 4.22417 25.199 4 24.6211 4H16.3955Z" fill="var(--fill-0, white)" fill-opacity="0.7"/>
</svg>
