<svg preserveAspectRatio="none" width="100%" height="100%" overflow="visible" style="display: block;" viewBox="0 0 47.9004 78.5547" fill="none" xmlns="http://www.w3.org/2000/svg">
<path id="Union" d="M29.6182 34.5547C31.2216 34.5547 32.7705 35.1743 33.9209 36.293C35.073 37.4136 35.7314 38.9453 35.7314 40.5547V42.5547H44.0137C45.1181 42.5548 46.0137 43.4502 46.0137 44.5547C46.0137 45.6592 45.1181 46.5546 44.0137 46.5547H41.9004V72.5547C41.9004 74.1642 41.2421 75.6958 40.0898 76.8164C38.9395 77.9351 37.3906 78.5547 35.7871 78.5547H15.2227C13.6194 78.5545 12.0701 77.935 10.9199 76.8164C9.76803 75.6958 9.11035 74.1639 9.11035 72.5547V46.5547H6.99707C5.89271 46.5544 4.99707 45.6591 4.99707 44.5547C4.99707 43.4503 5.89271 42.5549 6.99707 42.5547H15.2793V40.5547C15.2793 38.9453 15.9378 37.4136 17.0898 36.293C18.2401 35.1743 19.7892 34.5548 21.3926 34.5547H29.6182ZM13.1104 72.5547C13.1104 73.0667 13.3188 73.5696 13.709 73.9492C14.1011 74.3305 14.6449 74.5545 15.2227 74.5547H35.7871C36.3651 74.5547 36.9095 74.3306 37.3018 73.9492C37.692 73.5696 37.9004 73.0668 37.9004 72.5547V46.5547H13.1104V72.5547ZM21.3926 52.5547C22.497 52.5548 23.3926 53.4502 23.3926 54.5547V66.5547C23.3926 67.6592 22.497 68.5546 21.3926 68.5547C20.2882 68.5544 19.3926 67.6591 19.3926 66.5547V54.5547C19.3926 53.4503 20.2882 52.5549 21.3926 52.5547ZM29.6182 52.5547C30.7227 52.5547 31.6182 53.4501 31.6182 54.5547V66.5547C31.6182 67.6593 30.7227 68.5547 29.6182 68.5547C28.5138 68.5544 27.6182 67.6591 27.6182 66.5547V54.5547C27.6182 53.4503 28.5138 52.555 29.6182 52.5547ZM21.3926 38.5547C20.8148 38.5548 20.271 38.7789 19.8789 39.1602C19.4887 39.5398 19.2793 40.0426 19.2793 40.5547V42.5547H31.7314V40.5547C31.7314 40.0425 31.5222 39.5398 31.1318 39.1602C30.7396 38.7789 30.1961 38.5547 29.6182 38.5547H21.3926ZM20.0977 25.8398H18.252V18.5742H3.31055V17.0215H20.0977V25.8398ZM47.9004 25.8398H46.1133V0H47.9004V25.8398ZM42.6855 24.4336H40.9277V10.9863H36.2695V9.43359H40.9277V0.673828H42.6855V24.4336ZM38.291 4.7168H33.3105V7.4707C33.3008 8.98438 33.5303 10.4639 33.999 11.9092C34.4678 13.3545 35.1367 14.6582 36.0059 15.8203C36.875 16.9727 37.8809 17.8809 39.0234 18.5449L37.8809 19.9512C36.5918 19.1699 35.4736 18.0811 34.5264 16.6846C33.5791 15.2881 32.8809 13.7158 32.4316 11.9678C31.9629 13.8525 31.2402 15.5469 30.2637 17.0508C29.2969 18.5547 28.1543 19.7168 26.8359 20.5371L25.6641 19.1602C26.8164 18.4668 27.8369 17.5098 28.7256 16.2891C29.6143 15.0684 30.3027 13.6963 30.791 12.1729C31.2793 10.6396 31.5234 9.07227 31.5234 7.4707V4.7168H26.2793V3.16406H38.291V4.7168ZM20.0977 7.00195H24.082V8.61328H20.0977V15.6738H18.252V0H20.0977V7.00195ZM8.4082 4.18945C8.39844 5.37109 8.68164 6.51367 9.25781 7.61719C9.84375 8.71094 10.6396 9.67773 11.6455 10.5176C12.6514 11.3574 13.7695 11.9922 15 12.4219L14.0039 13.916C12.5293 13.3594 11.2207 12.5342 10.0781 11.4404C8.94531 10.3467 8.10059 9.0918 7.54395 7.67578C7.0166 9.23828 6.17676 10.6104 5.02441 11.792C3.87207 12.9736 2.51953 13.8672 0.966797 14.4727L0 12.9785C1.25977 12.5195 2.3877 11.8506 3.38379 10.9717C4.37988 10.083 5.16113 9.04785 5.72754 7.86621C6.30371 6.68457 6.5918 5.42969 6.5918 4.10156V1.28906H8.4082V4.18945Z" fill="var(--fill-0, white)"/>
</svg>
